HIERARCHY
ROOT hip
{
  OFFSET 0 0 0
  CHANNELS 6 Xposition Yposition Zposition Zrotation Yrotation Xrotation
  JOINT abdomen
  {
    OFFSET 0 20.6881 -0.73152
    CHANNELS 3 Zrotation Xrotation Yrotation
    JOINT chest
    {
      OFFSET 0 11.7043 -0.48768
      CHANNELS 3 Zrotation Xrotation Yrotation
      JOINT neck
      {
        OFFSET 0 22.1894 -2.19456
        CHANNELS 3 Zrotation Xrotation Yrotation
        JOINT head
        {
          OFFSET -0.24384 7.07133 1.2192
          CHANNELS 3 Zrotation Xrotation Yrotation
          JOINT leftEye
          {
            OFFSET 4.14528 8.04674 8.04672
            CHANNELS 3 Zrotation Xrotation Yrotation
            End Site
            {
              OFFSET 1 0 0
            }
          }
          JOINT rightEye
          {
            OFFSET -3.6576 8.04674 8.04672
            CHANNELS 3 Zrotation Xrotation Yrotation
            End Site
            {
              OFFSET 1 0 0
            }
          }
        }
      }
      JOINT rCollar
      {
        OFFSET -2.68224 19.2634 -4.8768
        CHANNELS 3 Zrotation Xrotation Yrotation
        JOINT rShldr
        {
          OFFSET -8.77824 -1.95073 1.46304
          CHANNELS 3 Zrotation Xrotation Yrotation
          JOINT rForeArm
          {
            OFFSET -28.1742 -1.7115 0.48768
            CHANNELS 3 Zrotation Xrotation Yrotation
            JOINT rHand
            {
              OFFSET -22.5879 0.773209 7.07136
              CHANNELS 3 Zrotation Xrotation Yrotation
              JOINT rThumb1
              {
                OFFSET -1.2192 -0.487915 3.41376
                CHANNELS 3 Zrotation Xrotation Yrotation
                JOINT rThumb2
                {
                  OFFSET -3.37035 -0.52449 3.41376
                  CHANNELS 3 Zrotation Xrotation Yrotation
                  End Site
                  {
                    OFFSET -1.78271 -1.18214 1.43049
                  }
                }
              }
              JOINT rIndex1
              {
                OFFSET -7.75947 0.938293 5.60832
                CHANNELS 3 Zrotation Xrotation Yrotation
                JOINT rIndex2
                {
                  OFFSET -2.54057 -0.884171 1.56538
                  CHANNELS 3 Zrotation Xrotation Yrotation
                  End Site
                  {
                    OFFSET -1.62519 -0.234802 1.16502
                  }
                }
              }
              JOINT rMid1
              {
                OFFSET -8.24714 1.18213 3.41376
                CHANNELS 3 Zrotation Xrotation Yrotation
                JOINT rMid2
                {
                  OFFSET -3.10165 -0.590103 1.0647
                  CHANNELS 3 Zrotation Xrotation Yrotation
                  End Site
                  {
                    OFFSET -2.48547 -0.328903 0.83742
                  }
                }
              }
              JOINT rRing1
              {
                OFFSET -8.82822 0.546677 1.51678
                CHANNELS 3 Zrotation Xrotation Yrotation
                JOINT rRing2
                {
                  OFFSET -2.60934 -0.819778 -0.0198488
                  CHANNELS 3 Zrotation Xrotation Yrotation
                  End Site
                  {
                    OFFSET -2.33842 -0.294052 0.168128
                  }
                }
              }
              JOINT rPinky1
              {
                OFFSET -8.27202 -0.0477905 -0.4584
                CHANNELS 3 Zrotation Xrotation Yrotation
                JOINT rPinky2
                {
                  OFFSET -1.82734 -0.647385 -0.700984
                  CHANNELS 3 Zrotation Xrotation Yrotation
                  End Site
                  {
                    OFFSET -1.69225 -0.51767 -0.607171
                  }
                }
              }
            }
          }
        }
      }
      JOINT lCollar
      {
        OFFSET 2.68224 19.2634 -4.8768
        CHANNELS 3 Zrotation Xrotation Yrotation
        JOINT lShldr
        {
          OFFSET 8.77824 -1.95073 1.46304
          CHANNELS 3 Zrotation Xrotation Yrotation
          JOINT lForeArm
          {
            OFFSET 28.1742 -1.7115 0.48768
            CHANNELS 3 Zrotation Xrotation Yrotation
            JOINT lHand
            {
              OFFSET 22.5879 0.773209 7.07136
              CHANNELS 3 Zrotation Xrotation Yrotation
              JOINT lThumb1
              {
                OFFSET 1.2192 -0.487915 3.41376
                CHANNELS 3 Zrotation Xrotation Yrotation
                JOINT lThumb2
                {
                  OFFSET 3.37035 -0.52449 3.41376
                  CHANNELS 3 Zrotation Xrotation Yrotation
                  End Site
                  {
                    OFFSET 1.78271 -1.18214 1.43049
                  }
                }
              }
              JOINT lIndex1
              {
                OFFSET 7.75947 0.938293 5.60832
                CHANNELS 3 Zrotation Xrotation Yrotation
                JOINT lIndex2
                {
                  OFFSET 2.54057 -0.884171 1.56538
                  CHANNELS 3 Zrotation Xrotation Yrotation
                  End Site
                  {
                    OFFSET 1.62519 -0.234802 1.16502
                  }
                }
              }
              JOINT lMid1
              {
                OFFSET 8.24714 1.18213 3.41376
                CHANNELS 3 Zrotation Xrotation Yrotation
                JOINT lMid2
                {
                  OFFSET 3.10165 -0.590103 1.0647
                  CHANNELS 3 Zrotation Xrotation Yrotation
                  End Site
                  {
                    OFFSET 2.48547 -0.328903 0.83742
                  }
                }
              }
              JOINT lRing1
              {
                OFFSET 8.82822 0.546677 1.51678
                CHANNELS 3 Zrotation Xrotation Yrotation
                JOINT lRing2
                {
                  OFFSET 2.60934 -0.819778 -0.0198488
                  CHANNELS 3 Zrotation Xrotation Yrotation
                  End Site
                  {
                    OFFSET 2.33842 -0.294052 0.168128
                  }
                }
              }
              JOINT lPinky1
              {
                OFFSET 8.27202 -0.0477905 -0.4584
                CHANNELS 3 Zrotation Xrotation Yrotation
                JOINT lPinky2
                {
                  OFFSET 1.82734 -0.647385 -0.700984
                  CHANNELS 3 Zrotation Xrotation Yrotation
                  End Site
                  {
                    OFFSET 1.69225 -0.51767 -0.607171
                  }
                }
              }
            }
          }
        }
      }
    }
  }
  JOINT rButtock
  {
    OFFSET -8.77824 4.35084 1.2192
    CHANNELS 3 Zrotation Xrotation Yrotation
    JOINT rThigh
    {
      OFFSET 0 -1.70687 -2.19456
      CHANNELS 3 Zrotation Xrotation Yrotation
      JOINT rShin
      {
        OFFSET 0 -36.8199 0.73152
        CHANNELS 3 Zrotation Xrotation Yrotation
        JOINT rFoot
        {
          OFFSET 0.73152 -45.1104 -5.12064
          CHANNELS 3 Zrotation Xrotation Yrotation
          End Site
          {
            OFFSET -1.1221 -3.69964 12.103
          }
        }
      }
    }
  }
  JOINT lButtock
  {
    OFFSET 8.77824 4.35084 1.2192
    CHANNELS 3 Zrotation Xrotation Yrotation
    JOINT lThigh
    {
      OFFSET 0 -1.70687 -2.19456
      CHANNELS 3 Zrotation Xrotation Yrotation
      JOINT lShin
      {
        OFFSET 0 -36.8199 0.73152
        CHANNELS 3 Zrotation Xrotation Yrotation
        JOINT lFoot
        {
          OFFSET -0.73152 -45.1104 -5.12064
          CHANNELS 3 Zrotation Xrotation Yrotation
          End Site
          {
            OFFSET 1.1221 -3.69964 12.103
          }
        }
      }
    }
  }
}
MOTION
Frames:	7
Frame Time:	0.03333
0.0 0.0 0.0 0.0 0.0 0.0 0.0 0.0 0.0 0.0 0.0 0.0 0.0 0.0 0.0 0.0 0.0 0.0 0.0 0.0 0.0 0.0 0.0 0.0 0.0 0.0 0.0 0.0 0.0 0.0 0.0 0.0 0.0 0.0 0.0 0.0 0.0 0.0 0.0 0.0 0.0 0.0 0.0 0.0 0.0 0.0 0.0 0.0 0.0 0.0 0.0 0.0 0.0 0.0 0.0 0.0 0.0 0.0 0.0 0.0 0.0 0.0 0.0 0.0 0.0 0.0 0.0 0.0 0.0 0.0 0.0 0.0 0.0 0.0 0.0 0.0 0.0 0.0 0.0 0.0 0.0 0.0 0.0 0.0 0.0 0.0 0.0 0.0 0.0 0.0 0.0 0.0 0.0 0.0 0.0 0.0 0.0 0.0 0.0 0.0 0.0 0.0 0.0 0.0 0.0 0.0 0.0 0.0 0.0 0.0 0.0 0.0 0.0 0.0 0.0 0.0 0.0 0.0 0.0 0.0 0.0 0.0 0.0 0.0 0.0 0.0 0.0 0.0 0.0 0.0 0.0 0.0
-0.099 68.32679999999999 0.0523 178.838682 -52.544752 -173.999798 -7.625437 6.257667 -83.031404 6.46667 2.998408 72.920655 -13.886037 25.02163 -38.458847 28.053884 -10.233583 -14.14065 -0.001846 -0.0 0.003639 0.003897 -0.0 -0.001975 -28.38417 -85.199308 -49.679183 -91.654841 -39.016492 -93.116188 -13.084363 -2.395826 -66.509981 153.759688 -47.014476 133.770434 -178.927542 -16.453756 89.420867 -54.06396 -7.564605 8.586926 37.217506 -57.917216 -0.640344 -12.060632 35.089718 10.609623 -160.673633 -6.668009 143.244283 86.521886 -77.968009 57.796186 -0.020817 -1.725361 -0.541148 -155.268573 -1.04123 171.978367 0.097877 0.258284 0.092338 -149.52165 19.140884 -145.355652 159.221269 -48.38091 -170.491545 42.199654 12.335552 29.748234 86.484695 -26.228457 148.680604 -59.009212 -67.817128 -45.20458 78.03079 38.68956 -42.41247 130.536432 -22.437076 -81.676453 161.901575 -36.243061 -122.688108 3.475883 28.461657 1.49867 160.82688 -7.141548 -143.316887 172.315053 -31.360774 -143.654399 0.014889 -1.323261 0.415162 -10.424853 0.190724 0.045262 140.00513 -2.494247 137.118005 -1.489396 -2.727021 2.815743 0.000873 0.000414 0.00131 -36.606199 -63.032347 -180.0 -66.269997 -60.801243 31.522117 138.667255 57.47289 -48.712591 0.000873 0.000414 0.00131 7.923516 6.877977 -92.280011 -49.666368 -3.110655 -104.016588 145.132926 48.632791 111.121996
-0.11800000000000001 68.26480000000001 0.08109999999999999 178.434836 -52.286576 -173.744149 -7.77267 6.316058 -83.571047 6.451123 3.231159 72.745002 -14.894168 37.134548 -111.088858 31.445232 27.900949 49.35264 -0.001147 0.0 -0.000484 -0.000698 -0.0 0.001212 0.117932 -0.713991 -0.158574 87.385401 86.849252 -19.850124 151.198588 60.41815 139.967467 172.366205 -8.408861 145.180341 -173.772467 -11.439268 89.890845 -142.064075 9.433398 72.799108 -155.192991 -24.299934 122.143308 -133.609969 32.150767 108.4202 -36.039175 51.721756 29.83414 -170.154366 -26.28709 144.195345 -71.92621 72.973413 89.772227 3.011467 46.289921 2.906683 -145.127814 11.921893 -141.783214 52.577662 81.526448 -15.653703 155.460236 -3.227649 -161.777932 170.840667 72.267981 -112.851444 -145.073921 -68.762482 -55.010744 -170.709958 -14.670851 -144.279491 171.603233 -9.286347 -89.949733 -11.868151 -59.692303 -13.91545 -73.4181 -73.572449 -26.562046 -10.423882 10.637364 3.784073 -0.540577 -1.589907 0.296396 129.275497 52.114906 -118.500201 75.67319 -72.116741 92.828739 85.886198 83.057187 -103.786081 -25.919318 79.094059 -10.827596 -5.609519 12.214653 -2.367509 -179.999309 75.750683 0.0 163.561636 9.589073 2.482977 31.213105 76.791007 81.774478 -13.063632 9.781848 -96.034412 179.997885 75.750683 0.002182 -132.732012 79.462849 -137.294565 -42.503293 -9.84241 -2.341665 113.632923 -34.740808 170.679633
-0.0832 68.2004 0.15089999999999998 178.425416 -52.039994 -173.710653 -7.938598 6.391076 -84.221812 6.445892 3.451093 72.712615 -15.930329 28.147238 -57.120994 33.598474 -0.750841 2.013756 -0.00079 0.0 -0.001552 0.004863 0.0 0.003789 4.20975 -43.443076 -8.383514 -110.375638 -19.301522 -139.594499 -164.477474 -27.172008 -141.635668 -3.19017 13.23866 0.368821 -7.35084 7.062345 1.570788 -122.507615 -17.691041 108.203885 2.326194 -3.867783 -1.258908 -65.475271 48.476468 50.843525 -171.057773 -38.900429 145.271948 -13.724932 36.280461 11.04104 -0.021676 -1.725039 -0.543226 -150.704542 35.179984 165.827609 -152.199415 37.329838 -147.583801 1.582709 -0.659106 -2.0868 -0.058775 -0.352788 0.078552 -103.503733 85.049608 25.889967 63.533808 1.743389 8.59928 -29.421192 -54.528011 -18.404029 -71.83105 -48.263312 -25.792371 100.32271 37.80034 -66.591072 162.637366 -37.465756 -122.647765 -33.67129 -38.898021 7.735363 -89.035542 -81.392793 -59.760358 -2.82859 0.573347 -0.251621 -0.006174 0.917603 -0.28774 -10.246546 0.10983 0.052035 155.354442 49.79277 149.603819 -5.534218 10.596381 -1.139549 -0.000755 0.001041 -0.000378 -34.397582 -62.631018 -108.284423 -72.770426 17.300992 140.453596 99.229746 -64.354336 4.216685 -179.997572 75.750332 -0.002142 -133.142039 81.251515 -46.396174 -11.4645 40.363839 -80.661696 125.954816 -37.411108 -177.549474
-0.0724 68.1429 0.1716 178.508647 -51.699667 -173.626905 -7.999332 6.409251 -84.387508 6.487076 3.58291 72.339782 -2.538679 21.80194 23.635594 -6.358115 -22.562258 -84.141929 -6.6e-05 0.0 -0.001968 0.000388 -0.0 -9e-06 1.700248 -70.103313 -16.501389 23.660355 6.820982 -49.119832 -128.747647 -6.421934 147.038287 59.706405 -67.427849 46.140621 -5.763862 5.575089 1.158647 -132.842119 -33.355708 114.091801 -14.229656 19.202754 9.560885 -7.210054 21.021775 5.459601 6.532721 -20.414995 -2.717943 29.314108 -60.230945 6.427014 0.004443 1.770323 0.557022 10.898418 -12.241929 -1.535686 -145.17547 12.067864 -141.821638 1.473085 -2.050872 -2.641287 157.796854 -22.115228 -165.468201 57.535767 2.772642 5.651488 42.182969 -34.745268 105.509021 -132.505046 -62.552835 -115.202318 171.706344 -9.388493 -89.947641 -124.413164 -58.697273 -90.017269 77.666895 43.029347 -64.538821 -87.709144 -64.891437 -40.451332 160.573434 -6.359465 -143.197663 -2.87022 1.019737 -0.500571 145.099467 -1.521535 178.651036 153.501869 -16.727776 176.8412 156.380268 53.733925 150.119946 128.793811 -28.146687 125.604705 -0.001746 0.001495 -0.000873 -35.376286 -61.520974 -32.296047 -22.885247 82.399445 -121.013923 30.7125 7.150357 158.968542 179.975763 75.750771 0.019942 -133.927295 79.7267 -135.935284 -42.204017 -9.894301 1.563244 106.480709 -37.221664 165.783893
-0.1591 68.09389999999999 0.21250000000000002 178.629717 -51.437034 -173.697378 -7.956826 6.370007 -84.082524 6.575345 3.627973 71.642048 6.793418 31.629429 97.250928 -32.125627 9.833758 -156.316115 -0.000384 -0.0 0.002296 0.004879 0.0 0.000138 -159.221552 -48.38096 170.491233 -32.812043 18.878836 -23.792985 -170.865649 44.08861 -149.115962 -6.342025 22.040513 0.748034 -178.927615 -16.453637 89.422055 -130.673512 15.38324 65.596886 -148.886416 -12.610105 120.243892 -8.49089 31.753828 0.179703 -36.035791 51.723538 29.831343 -170.066473 -26.019861 144.199319 -0.02061 -1.726079 -0.542287 11.710969 -33.425596 -4.018177 -75.779224 -51.668429 -74.249258 -84.409112 -52.988019 -84.876522 -0.022954 -0.138634 0.031054 113.138803 80.385311 167.775143 72.713053 -76.256199 29.909246 3.028468 13.673668 -0.495116 178.927773 -16.453603 -89.421621 -150.392647 -47.112738 -103.362127 155.194847 -24.299866 -122.142087 167.146594 -28.685704 -118.827118 29.51716 47.60818 -23.79565 -3.322697 0.216729 -0.081161 72.352066 72.976032 -90.217452 66.726519 -82.367497 83.7676 23.389111 -36.349934 22.493136 8.17176 -23.974115 10.415074 0.000255 0.000505 -0.000127 -36.502063 -63.881652 -180.0 -66.62069 -49.265259 165.214858 -82.22262 31.262079 7.475099 0.011725 0.000506 0.008794 6.210034 5.857234 -180.0 -0.775551 -38.498779 -165.183534 -45.993652 -44.736273 3.625469
-0.2103 68.0733 0.23370000000000002 178.462104 -51.285404 -173.672129 -10.370175 8.505199 -0.0 6.840633 -8.292036 -11.88275 4.727256 38.065475 136.395114 -26.637299 30.29651 169.055106 -0.002422 0.0 -0.002004 0.003723 0.0 4.8e-05 0.117821 -0.71413 -0.157374 -107.897424 4.189545 -175.587566 -169.487951 -22.986326 -142.592296 -4.95867 17.542572 0.409845 116.309742 -50.010785 56.954517 -27.979631 -20.108258 -18.134768 -1.163286 1.860484 0.669078 2.189117 12.453048 2.292008 -36.038295 51.722051 29.833865 -179.602098 -48.731441 141.327496 -71.924846 72.974866 89.771402 4.971602 29.769461 -0.409384 -162.364048 72.064199 -150.900868 -138.433929 -13.252227 -134.231018 143.476386 38.507543 -147.926294 110.504819 27.914185 -70.43557 153.737565 42.524102 153.172079 2.359779 12.302502 -0.577014 168.667899 -6.349166 -89.897396 155.290385 0.994494 -80.014029 123.869035 22.788087 -104.455637 170.822413 -25.0939 -117.042391 -0.542063 -1.589852 0.294189 -15.793177 -37.088737 0.868287 145.119235 0.309572 179.226805 152.411589 76.076844 -167.131225 143.939146 8.264523 140.720686 -17.000429 43.781205 -6.04869 -179.988339 75.749557 -0.012032 165.214257 7.33745 -115.820549 -78.483326 -34.006853 0.725425 93.711483 -59.890706 -170.429748 179.984276 75.74977 0.012938 -134.40592 81.480301 -45.911856 -8.73026 47.794394 -157.469862 41.01524 53.338945 177.392792
